<?xml version="1.0" encoding="UTF-8" standalone="no"?><svg width="156" height="44" viewBox="0 0 156 44" fill="none" xmlns="http://www.w3.org/2000/svg">
<path opacity="0.1" fill-rule="evenodd" clip-rule="evenodd" d="M156 0H44V44H156V0ZM57.967 34.2453C59.8887 35.4151 62.1714 36 64.8153 36C67.4591 36 69.7358 35.4151 71.6452 34.2453C73.5669 33.0756 75.0418 31.4391 76.07 29.336C77.1104 27.2329 77.6306 24.7876 77.6306 22C77.6306 19.2124 77.1104 16.7671 76.07 14.664C75.0418 12.5609 73.5669 10.9244 71.6452 9.75467C69.7358 8.58489 67.4591 8 64.8153 8C62.1714 8 59.8887 8.58489 57.967 9.75467C56.0576 10.9244 54.5826 12.5609 53.5422 14.664C52.5141 16.7671 52 19.2124 52 22C52 24.7876 52.5141 27.2329 53.5422 29.336C54.5826 31.4391 56.0576 33.0756 57.967 34.2453ZM69.0014 30.12C67.8875 30.8791 66.4922 31.2462 64.8153 31.2213C63.1384 31.1964 61.743 30.8044 60.6292 30.0453C59.5154 29.2862 58.6769 28.2222 58.1139 26.8533C57.5631 25.4844 57.2877 23.8667 57.2877 22C57.2877 20.1333 57.5631 18.5031 58.1139 17.1093C58.6769 15.7156 59.5154 14.6391 60.6292 13.88C61.743 13.1209 63.1384 12.7538 64.8153 12.7787C66.4922 12.8036 67.8875 13.1956 69.0014 13.9547C70.1152 14.7138 70.9475 15.7778 71.4983 17.1467C72.0614 18.5156 72.3429 20.1333 72.3429 22C72.3429 23.8667 72.0614 25.4969 71.4983 26.8907C70.9475 28.2844 70.1152 29.3609 69.0014 30.12ZM81.2957 8.56V35.44H85.9591V19.3867L93.6336 35.44H95.3962L103.071 19.3867V35.44H107.734V8.56H103.254L94.5149 26.4053L85.7755 8.56H81.2957ZM112.888 35.44V8.56H117.955L129.449 26.48V8.56H134.516V35.44H129.449L117.955 17.52V35.44H112.888ZM140.006 8.56V35.44H145V8.56H140.006Z" fill="white"/>
<path opacity="0.2" fill-rule="evenodd" clip-rule="evenodd" d="M44 0H0V44H44V0ZM9.247 31.7405L16.6382 37L22.0214 28.7532L27.3618 37L34.753 31.7405L28.3445 24.2931L38 21.7265L35.1802 13.1851L25.9519 16.9299L26.5928 7H17.4499L18.0908 16.9299L8.81976 13.1851L6 21.7265L15.6983 24.2931L9.247 31.7405Z" fill="white"/>
</svg>
