<?xml version="1.0" encoding="UTF-8" standalone="no"?><svg width="156" height="44" viewBox="0 0 156 44" fill="none" xmlns="http://www.w3.org/2000/svg">
<rect x="44" width="112" height="44" fill="#40454E"/>
<path d="M64.8153 36C62.1714 36 59.8887 35.4151 57.967 34.2453C56.0576 33.0756 54.5826 31.4391 53.5422 29.336C52.5141 27.2329 52 24.7876 52 22C52 19.2124 52.5141 16.7671 53.5422 14.664C54.5826 12.5609 56.0576 10.9244 57.967 9.75467C59.8887 8.58489 62.1714 8 64.8153 8C67.4591 8 69.7358 8.58489 71.6452 9.75467C73.5669 10.9244 75.0418 12.5609 76.07 14.664C77.1104 16.7671 77.6306 19.2124 77.6306 22C77.6306 24.7876 77.1104 27.2329 76.07 29.336C75.0418 31.4391 73.5669 33.0756 71.6452 34.2453C69.7358 35.4151 67.4591 36 64.8153 36ZM64.8153 31.2213C66.4922 31.2462 67.8875 30.8791 69.0014 30.12C70.1152 29.3609 70.9475 28.2844 71.4983 26.8907C72.0614 25.4969 72.3429 23.8667 72.3429 22C72.3429 20.1333 72.0614 18.5156 71.4983 17.1467C70.9475 15.7778 70.1152 14.7138 69.0014 13.9547C67.8875 13.1956 66.4922 12.8036 64.8153 12.7787C63.1384 12.7538 61.743 13.1209 60.6292 13.88C59.5154 14.6391 58.6769 15.7156 58.1139 17.1093C57.5631 18.5031 57.2877 20.1333 57.2877 22C57.2877 23.8667 57.5631 25.4844 58.1139 26.8533C58.6769 28.2222 59.5154 29.2862 60.6292 30.0453C61.743 30.8044 63.1384 31.1964 64.8153 31.2213Z" fill="white"/>
<path d="M81.2957 35.44V8.56H85.7755L94.5149 26.4053L103.254 8.56H107.734V35.44H103.071V19.3867L95.3962 35.44H93.6336L85.9591 19.3867V35.44H81.2957Z" fill="white"/>
<path d="M112.888 35.44V8.56H117.955L129.449 26.48V8.56H134.516V35.44H129.449L117.955 17.52V35.44H112.888Z" fill="white"/>
<path d="M140.006 35.44V8.56H145V35.44H140.006Z" fill="white"/>
<path fill-rule="evenodd" clip-rule="evenodd" d="M44 0H0V44H44V0ZM9.247 31.7405L16.6382 37L22.0214 28.7532L27.3618 37L34.753 31.7405L28.3445 24.2931L38 21.7265L35.1802 13.1851L25.9519 16.9299L26.5928 7H17.4499L18.0908 16.9299L8.81976 13.1851L6 21.7265L15.6983 24.2931L9.247 31.7405Z" fill="#C6F91F"/>
</svg>
