<?xml version="1.0" encoding="UTF-8" standalone="no"?><svg width="394" height="364" viewBox="0 0 394 364" fill="none" xmlns="http://www.w3.org/2000/svg">
<path opacity="0.2" d="M131.365 362.409L131.786 362.705L132.07 362.276L197.259 263.672L261.929 362.274L262.212 362.706L262.635 362.409L352.715 299.12L353.169 298.801L352.804 298.383L275.23 209.373L392.127 178.693L392.644 178.557L392.474 178.05L358.108 75.2692L357.94 74.7664L357.448 74.9636L245.715 119.73L253.474 1.03261L253.508 0.5H252.975H141.546H141.012L141.047 1.03261L148.806 119.732L36.551 74.9633L36.0594 74.7673L35.8916 75.2692L1.5258 178.05L1.35624 178.558L1.87359 178.693L119.288 209.373L41.1969 298.381L40.8296 298.8L41.2853 299.12L131.365 362.409Z" stroke="white"/>
</svg>
