<?xml version="1.0" encoding="UTF-8" standalone="no"?><svg width="261" height="244" viewBox="0 0 261 244" fill="none" xmlns="http://www.w3.org/2000/svg">
<path opacity="0.2" d="M159.873 233.892L61.6346 244L54.4113 181.906L-40.9374 213.675L-85 163.134L16.1273 137.863L-65.4969 96.7076L6.01462 55.5523L77.5261 102.484L120.866 44L208.992 69.2708L153.372 124.144L261 128.477L243.664 185.516L138.202 173.242L159.873 233.892Z" fill="#597274"/>
<path d="M159.873 189.892L61.6346 200L54.4113 137.906L-40.9374 169.675L-85 119.134L16.1273 93.8628L-65.4969 52.7076L6.01462 11.5523L77.5261 58.4838L120.866 0L208.992 25.2708L153.372 80.1444L261 84.4765L243.664 141.516L138.202 129.242L159.873 189.892Z" fill="#2D323C"/>
</svg>
