<?xml version="1.0" encoding="UTF-8" standalone="no"?><svg width="284" height="158" viewBox="0 0 284 158" fill="none" xmlns="http://www.w3.org/2000/svg">
<path d="M0.5 0.5H283.5V157.5H0.5V0.5Z" fill="#53575F" stroke="#53575F"/>
<circle cx="40" cy="45" r="22" fill="#C6F91F"/>
<path d="M36.5076 54.2632L31.6936 50.9138L35.8954 46.171L29.5788 44.5364L31.4154 39.0969L37.4537 41.4817L37.0363 35.158H42.9912L42.5738 41.4817L48.5843 39.0969L50.4209 44.5364L44.1321 46.171L48.3061 50.9138L43.4921 54.2632L40.0138 49.0113L36.5076 54.2632Z" fill="#53575F"/>
<path opacity="0.2" fill-rule="evenodd" clip-rule="evenodd" d="M196.047 37.5H78V28.5H196.047V37.5Z" fill="white"/>
<path opacity="0.5" fill-rule="evenodd" clip-rule="evenodd" d="M150.93 62.5H78V53.5H150.93V62.5Z" fill="white"/>
<rect x="18" y="89" width="247" height="53" rx="4" fill="#40454E"/>
<path opacity="0.2" fill-rule="evenodd" clip-rule="evenodd" d="M237 120H46V111H237V120Z" fill="white"/>
</svg>
